<svg width="175" height="176" fill="none" xmlns="http://www.w3.org/2000/svg"><path d="M155.9 59.3h-7V45.6h-23.3v34.1H49.4v-34H26.1v13.6h-7c-3.6 0-6.6 2.9-6.6 6.6v44.2c0 3.6 2.9 6.6 6.6 6.6h7v13.6h23.3v-34h76.2v34.1h23.3v-13.7h7c3.6 0 6.6-2.9 6.6-6.6V65.9c0-3.6-2.9-6.6-6.6-6.6zM19.1 113.7c-2 0-3.6-1.6-3.6-3.6V65.9c0-2 1.6-3.6 3.6-3.6h7v51.4h-7zm27.4 13.6H29V48.7h17.4v78.6h.1zm2.9-34V82.7h76.2v10.6H49.4zm96.6 34.1h-17.4V48.6H146v78.8zm13.6-17.3c0 2-1.6 3.6-3.6 3.6h-7V62.3h7c2 0 3.6 1.6 3.6 3.6v44.2z" fill="#1F4456"/></svg>