<svg width="175" height="176" fill="none" xmlns="http://www.w3.org/2000/svg"><path d="M89 101.1h-3V138h3v-36.9zm-1.5-39c-7.1 0-12.8-5.7-12.8-12.8 0-7.1 5.7-12.8 12.8-12.8 7.1 0 12.8 5.7 12.8 12.8 0 7.1-5.7 12.8-12.8 12.8zm0-22.6c-5.4 0-9.8 4.4-9.8 9.8s4.4 9.8 9.8 9.8 9.8-4.4 9.8-9.8-4.4-9.8-9.8-9.8z" fill="#1F4456"/><path d="M98.2 139.5H76.8c-1.5 0-2.9-.6-3.9-1.6s-1.6-2.4-1.6-3.9l-2.1-32.1V76.2C60.3 70.1 55 60.1 55 49.3h3c0 10.1 5.1 19.4 13.6 24.8l.7.4v27.2l2.1 32.1c0 .8.3 1.4.7 1.9.5.5 1.1.7 1.8.7h21.3c1.4 0 2.5-1.1 2.5-2.5l2.1-32.3V74.5l.7-.4c8.5-5.5 13.6-14.7 13.6-24.8h3c0 10.8-5.3 20.8-14.3 26.9v25.6l-2.1 32.3c0 2.9-2.5 5.4-5.5 5.4z" fill="#1F4456"/></svg>