<svg width="321" height="167" viewBox="0 0 321 167" fill="none" xmlns="http://www.w3.org/2000/svg">
<g id="HI Glasgow - East Kilbride">
<rect width="321" height="167" fill="white"/>
<g id="Group">
<g id="Clip path group">
<mask id="mask0_33_123" style="mask-type:luminance" maskUnits="userSpaceOnUse" x="27" y="21" width="259" height="116">
<g id="SVGID_00000091725349555174540020000007745392540541879950_">
<path id="Vector" d="M286 21H27V136.306H286V21Z" fill="white"/>
</g>
</mask>
<g mask="url(#mask0_33_123)">
<g id="Group_2">
<path id="Vector_2" d="M62.707 42.8173C68.7691 41.1102 75.2976 39.7196 82.0593 38.9535C80.9601 33.1244 74.9229 34.1903 73.2575 34.5484C70.1931 35.1896 67.2786 35.8891 64.5056 36.6302C65.9546 31.9919 67.6366 27.4786 70.2014 21.3665C69.1355 21.0833 67.9364 20.9085 66.5791 21.075C65.0469 21.2665 63.3315 22.0493 62.2989 23.9979C60.6585 27.1205 58.8765 32.0252 56.9196 38.8702C52.8726 40.1859 49.1587 41.6015 45.7362 43.1004C47.5349 36.6801 49.8914 30.2099 52.3896 24.7806C51.865 24.6141 50.8574 24.4392 50.1329 24.4392C47.36 24.4392 45.7528 25.4884 44.4954 28.2114C42.5302 32.4416 40.2069 39.5697 38.4749 46.6061C35.0941 48.4048 32.0463 50.2784 29.265 52.1937C27.5413 53.3844 27.1166 54.9499 27.0167 55.6578C26.9418 56.1574 27.0417 57.1983 27.3748 57.8312C29.2567 56.707 32.6292 54.8001 37.1342 52.61C36.2349 57.0817 35.1857 63.2771 35.1607 67.9986C35.1524 70.4135 36.6346 71.8291 38.7663 71.8291C39.3492 71.8291 40.5067 71.6626 40.64 71.5293C41.2562 63.2438 42.9133 54.8667 44.1624 49.4041C47.5099 47.9718 51.2238 46.5145 55.2208 45.1489C55.1209 45.5236 55.0293 45.89 54.9294 46.273C51.8483 58.3225 49.7832 71.3045 49.9497 74.8352C50.0913 77.6915 52.1897 78.7823 53.9718 78.7823C54.5297 78.7823 55.6705 78.6241 56.0702 78.4492C56.8197 69.6141 59.2678 56.2407 60.5669 51.0612C61.3496 47.9718 62.0325 45.2904 62.707 42.8173Z" fill="#216145"/>
<path id="Vector_3" d="M214.287 93.1501H220.999V91.5263H216.319V82.1915H214.279L214.287 93.1501ZM99.664 82.1915L96 93.1501H97.9152L98.7729 90.4354H102.962L103.836 93.1501H105.951L102.337 82.1915H99.664ZM99.2476 88.9449L100.871 83.857L102.479 88.9449H99.2476ZM111.747 82.1915H109.307V93.1501H111.164V84.748L116.102 93.1501H118.217V82.1915H116.36V90.119L111.747 82.1915ZM129.259 82.1915H127.202V93.1501H129.259V82.1915ZM136.187 82.1915H134.147V93.1501H136.187V88.4869H141.108V93.1501H143.165V82.1915H141.108V86.8547H136.187V82.1915ZM147.104 87.6125V87.7374C147.104 90.9684 149.069 93.3 152.575 93.3C155.673 93.3 157.571 91.4597 157.571 88.4286V87.4127H152.8V88.9449H155.556C155.498 90.4604 154.648 91.7012 152.6 91.7012C150.301 91.7012 149.211 90.094 149.211 87.7457V87.6208C149.211 85.2143 150.451 83.6155 152.6 83.6155C154.024 83.6155 155.006 84.24 155.256 85.6973H157.296C157.005 83.0742 154.923 82 152.575 82C149.377 82.0167 147.104 84.3483 147.104 87.6125ZM168.455 82.1915H166.415V93.1501H168.455V88.4869H173.376V93.1501H175.433V82.1915H173.376V86.8547H168.455V82.1915ZM179.064 87.6125V87.7374C179.064 90.8934 181.254 93.3 184.609 93.3C187.965 93.3 190.13 90.8934 190.13 87.6875V87.5626C190.13 84.3399 187.882 82.025 184.609 82.025C181.337 82.025 179.064 84.4066 179.064 87.6125ZM181.195 87.5959C181.195 85.2309 182.469 83.6571 184.618 83.6571C186.766 83.6571 188.024 85.3309 188.024 87.5792V87.7041C188.024 90.0774 186.725 91.6595 184.651 91.6595C182.578 91.6595 181.204 90.1107 181.204 87.7208L181.195 87.5959ZM200.314 82.1832H192.162V83.7903H195.21V93.1418H197.267V83.7987H200.314V82.1832ZM210.499 82.1832H203.645V93.1418H210.757V91.5346H205.686V88.3287H209.549V86.7965H205.686V83.7903H210.499V82.1832Z" fill="#525961"/>
<path id="Vector_4" d="M276.99 46.0148C276.99 45.1655 276.432 44.5826 275.566 44.5826C274.7 44.5826 274.134 45.1655 274.134 46.0148C274.134 46.8642 274.7 47.4471 275.566 47.4471C276.432 47.4471 276.99 46.8642 276.99 46.0148ZM276.757 46.0148C276.757 46.7893 276.274 47.2556 275.566 47.2556C274.858 47.2556 274.375 46.7893 274.375 46.0148C274.375 45.2404 274.858 44.7741 275.566 44.7741C276.274 44.7741 276.757 45.2404 276.757 46.0148ZM276.016 46.5311L275.816 46.173C276.032 46.1064 276.141 45.9482 276.141 45.7151C276.141 45.3986 275.899 45.2487 275.549 45.2487H274.933V45.4486H275.058V46.7893H275.316V46.2147H275.558L275.808 46.6477C275.874 46.7643 275.941 46.7976 276.057 46.7976C276.107 46.7976 276.166 46.7726 276.207 46.7476L276.224 46.5644C276.191 46.5894 276.141 46.5977 276.107 46.5977C276.074 46.5977 276.049 46.5894 276.016 46.5311ZM275.549 46.0148H275.325V45.4486H275.516C275.758 45.4486 275.874 45.5152 275.874 45.7234C275.874 45.8899 275.791 46.0148 275.549 46.0148ZM272.893 51.9937C274.001 46.8392 271.319 44.5826 267.43 44.5826C264.974 44.5826 262.884 45.6901 261.543 47.1723C261.543 47.1723 261.368 43.4501 256.455 44.9323C257.346 47.5387 256.855 48.4547 255.864 53.7091L254.823 58.7887C254.648 59.6631 253.491 64.0515 258.121 64.0515H258.804L260.627 55.2247C261.135 52.8598 262.076 48.3714 265.657 48.3714C267.439 48.3714 268.346 49.4789 267.789 52.1936L266.431 58.7804C266.24 59.6214 265.066 64.0515 269.72 64.0515H270.403L272.893 51.9937ZM251.934 51.9937C253.041 46.8392 250.36 44.5826 246.471 44.5826C244.014 44.5826 241.924 45.6901 240.584 47.1723C240.584 47.1723 240.409 43.4501 235.496 44.9323C236.387 47.5387 235.895 48.4547 234.905 53.7091L233.864 58.7887C233.689 59.6631 232.531 64.0515 237.161 64.0515H237.844L239.668 55.2247C240.176 52.8598 241.117 48.3714 244.697 48.3714C246.479 48.3714 247.387 49.4789 246.829 52.1936L245.472 58.7804C245.28 59.6214 244.106 64.0515 248.761 64.0515H249.452L251.934 51.9937ZM227.935 64.0432L234.222 33.4908C233.023 33.2826 229.234 33.3076 228.384 37.2713C227.618 40.8437 223.946 58.7721 223.946 58.7721C223.713 59.7963 222.697 64.0348 227.235 64.0348L227.935 64.0432ZM214.511 61.2452L217.9 44.924C217.401 44.8574 212.971 44.2578 212.021 48.8544C211.68 50.5198 211.081 53.4177 211.081 53.4177C210.581 55.7743 209.648 60.246 206.034 60.246C202.812 60.246 203.894 56.6903 204.086 55.7576L206.317 44.924C205.851 44.824 201.388 44.2745 200.438 48.8544C199.689 52.485 199.131 55.2663 199.048 55.5911C198.973 55.9158 198.54 57.881 198.54 58.847C198.54 60.2376 198.964 61.3535 199.739 62.2112C196.766 62.944 195.375 64.4845 195.375 66.6912C195.375 69.9388 198.59 71.8624 202.862 71.8624C206.534 71.8624 209.44 70.6299 211.28 68.5398C212.796 66.8411 213.82 64.5261 214.511 61.2452ZM208.899 62.844L208.699 63.6351C208.316 65.1507 207.616 66.4997 206.617 67.4656C205.651 68.3816 204.335 68.8896 202.903 68.8896C201.121 68.8896 199.656 68.0402 199.656 66.533C199.656 64.6094 201.546 64.1348 204.335 63.8267C206.309 63.6101 207.383 63.5185 208.899 62.844ZM193.002 64.0432L196.658 46.3562C194.693 45.282 192.603 44.5742 190.179 44.5742C183.135 44.5742 177.53 50.27 177.53 57.3481C177.53 61.495 179.887 64.0432 183.759 64.0432C186.082 64.0432 187.914 63.1855 188.964 62.053C189.413 63.5019 190.779 64.0432 192.319 64.0432H193.002ZM191.22 48.1216L189.596 55.9242C189.297 57.3148 188.864 58.5139 188.172 59.33C187.481 60.1044 186.582 60.5707 185.341 60.5707C183.601 60.5707 182.743 59.4133 182.743 57.2066C182.743 53.2595 185.574 47.8468 190.071 47.8468C190.529 47.8385 190.904 47.9634 191.22 48.1216ZM172.626 64.0515L178.696 34.6233C178.288 34.5733 173.741 33.8988 172.801 38.637C172.343 40.9436 171.493 44.9906 171.535 44.7574C171.077 44.6492 170.336 44.5826 169.603 44.5826C162.217 44.5826 156.954 50.5781 156.954 57.3148C156.954 61.4534 159.502 64.0515 163.374 64.0515C165.697 64.0515 167.504 63.2104 168.579 62.0779C169.028 63.4852 170.377 64.0515 171.926 64.0515H172.626ZM170.844 48.1299L169.228 55.9158C168.92 57.3065 168.454 58.5056 167.763 59.3216C167.063 60.0961 166.205 60.5624 164.973 60.5624C163.233 60.5624 162.2 59.3633 162.2 57.1566C162.2 52.6682 165.398 47.8302 169.345 47.8302C169.919 47.8385 170.577 47.9717 170.844 48.1299ZM157.429 39.2365C157.429 37.8875 156.421 36.9549 155.114 36.9549C153.332 36.9549 151.591 38.587 151.591 40.4023C151.591 41.7513 152.557 42.684 153.865 42.684C155.647 42.684 157.429 41.0602 157.429 39.2365ZM150.159 48.7961C149.135 53.5676 148.094 58.7887 148.094 58.7887C147.911 59.6298 146.77 64.0515 151.391 64.0515H152.074L156.021 44.9156C155.846 44.8907 151.167 44.0996 150.159 48.7961ZM142.748 64.0432L148.818 34.6149C148.818 34.6149 143.93 33.7073 142.939 38.5454C141.94 43.4251 138.759 58.7804 138.759 58.7804C138.559 59.6214 137.418 64.0432 142.04 64.0432H142.748ZM136.727 51.3859C136.727 46.8642 133.629 44.5742 129.341 44.5742C126.626 44.5742 124.228 45.4652 122.413 46.9808C119.548 49.3041 117.883 53.1346 117.883 57.1899C117.883 61.7115 120.981 64.0432 125.277 64.0432C127.992 64.0432 130.382 63.1522 132.197 61.6366C135.07 59.3217 136.727 55.4578 136.727 51.3859ZM131.539 51.4358C131.539 53.6092 130.732 56.8152 129.141 58.822C128.292 59.9046 127.209 60.6457 125.927 60.6457C123.87 60.6457 123.062 59.2134 123.062 57.1982C123.062 55.0332 123.878 51.8189 125.469 49.812C126.318 48.7212 127.442 47.9884 128.725 47.9884C130.773 47.9884 131.539 49.4206 131.539 51.4358ZM112.845 64.0432L119.157 33.4908C119.157 33.4908 114.26 32.6164 113.261 37.4961C113.028 38.612 112.52 41.0518 111.696 45.0572L103.16 46.7559L105.667 34.6149C104.892 34.4734 100.662 34.1403 99.7879 38.5454C99.5131 39.9277 95.5993 58.7804 95.5993 58.7804C95.3994 59.763 94.2586 64.0432 98.8802 64.0432H99.588L102.053 52.1103L110.597 50.4116C109.747 54.5085 108.856 58.7804 108.856 58.7804C108.665 59.6298 107.532 64.0432 112.154 64.0432H112.845Z" fill="#216145"/>
</g>
</g>
</g>
</g>
<g id="hotel-address">
<path id="Glasgow East Kilbride" d="M100.631 119.11C100.03 119.11 99.476 119.015 98.97 118.824C98.4713 118.626 98.035 118.351 97.661 117.999C97.287 117.64 96.9973 117.218 96.792 116.734C96.5867 116.25 96.484 115.722 96.484 115.15C96.484 114.578 96.5867 114.05 96.792 113.566C96.9973 113.082 97.287 112.664 97.661 112.312C98.0423 111.953 98.486 111.678 98.992 111.487C99.498 111.289 100.052 111.19 100.653 111.19C101.306 111.19 101.892 111.296 102.413 111.509C102.941 111.722 103.385 112.033 103.744 112.444L102.842 113.324C102.541 113.023 102.215 112.803 101.863 112.664C101.518 112.517 101.137 112.444 100.719 112.444C100.316 112.444 99.9417 112.51 99.597 112.642C99.2523 112.774 98.9553 112.961 98.706 113.203C98.4567 113.445 98.2623 113.731 98.123 114.061C97.991 114.391 97.925 114.754 97.925 115.15C97.925 115.539 97.991 115.898 98.123 116.228C98.2623 116.558 98.4567 116.848 98.706 117.097C98.9553 117.339 99.2487 117.526 99.586 117.658C99.9233 117.79 100.297 117.856 100.708 117.856C101.089 117.856 101.456 117.797 101.808 117.68C102.167 117.555 102.508 117.35 102.831 117.064L103.645 118.131C103.242 118.454 102.772 118.699 102.237 118.868C101.709 119.029 101.174 119.11 100.631 119.11ZM102.292 117.944V115.062H103.645V118.131L102.292 117.944ZM106.631 119V111.3H108.061V117.79H112.087V119H106.631ZM113.238 119L116.703 111.3H118.111L121.587 119H120.091L117.11 112.059H117.682L114.712 119H113.238ZM114.833 117.218L115.218 116.096H119.376L119.761 117.218H114.833ZM126.053 119.11C125.452 119.11 124.876 119.026 124.326 118.857C123.776 118.681 123.34 118.457 123.017 118.186L123.512 117.075C123.82 117.317 124.201 117.519 124.656 117.68C125.111 117.841 125.576 117.922 126.053 117.922C126.456 117.922 126.783 117.878 127.032 117.79C127.281 117.702 127.465 117.585 127.582 117.438C127.699 117.284 127.758 117.112 127.758 116.921C127.758 116.686 127.674 116.499 127.505 116.36C127.336 116.213 127.116 116.1 126.845 116.019C126.581 115.931 126.284 115.85 125.954 115.777C125.631 115.704 125.305 115.619 124.975 115.524C124.652 115.421 124.355 115.293 124.084 115.139C123.82 114.978 123.604 114.765 123.435 114.501C123.266 114.237 123.182 113.9 123.182 113.489C123.182 113.071 123.292 112.69 123.512 112.345C123.739 111.993 124.08 111.714 124.535 111.509C124.997 111.296 125.58 111.19 126.284 111.19C126.746 111.19 127.204 111.249 127.659 111.366C128.114 111.483 128.51 111.652 128.847 111.872L128.396 112.983C128.051 112.778 127.696 112.627 127.329 112.532C126.962 112.429 126.61 112.378 126.273 112.378C125.877 112.378 125.554 112.426 125.305 112.521C125.063 112.616 124.883 112.741 124.766 112.895C124.656 113.049 124.601 113.225 124.601 113.423C124.601 113.658 124.682 113.848 124.843 113.995C125.012 114.134 125.228 114.244 125.492 114.325C125.763 114.406 126.064 114.486 126.394 114.567C126.724 114.64 127.05 114.725 127.373 114.82C127.703 114.915 128 115.04 128.264 115.194C128.535 115.348 128.752 115.557 128.913 115.821C129.082 116.085 129.166 116.419 129.166 116.822C129.166 117.233 129.052 117.614 128.825 117.966C128.605 118.311 128.264 118.589 127.802 118.802C127.34 119.007 126.757 119.11 126.053 119.11ZM135.281 119.11C134.68 119.11 134.126 119.015 133.62 118.824C133.121 118.626 132.685 118.351 132.311 117.999C131.937 117.64 131.647 117.218 131.442 116.734C131.237 116.25 131.134 115.722 131.134 115.15C131.134 114.578 131.237 114.05 131.442 113.566C131.647 113.082 131.937 112.664 132.311 112.312C132.692 111.953 133.136 111.678 133.642 111.487C134.148 111.289 134.702 111.19 135.303 111.19C135.956 111.19 136.542 111.296 137.063 111.509C137.591 111.722 138.035 112.033 138.394 112.444L137.492 113.324C137.191 113.023 136.865 112.803 136.513 112.664C136.168 112.517 135.787 112.444 135.369 112.444C134.966 112.444 134.592 112.51 134.247 112.642C133.902 112.774 133.605 112.961 133.356 113.203C133.107 113.445 132.912 113.731 132.773 114.061C132.641 114.391 132.575 114.754 132.575 115.15C132.575 115.539 132.641 115.898 132.773 116.228C132.912 116.558 133.107 116.848 133.356 117.097C133.605 117.339 133.899 117.526 134.236 117.658C134.573 117.79 134.947 117.856 135.358 117.856C135.739 117.856 136.106 117.797 136.458 117.68C136.817 117.555 137.158 117.35 137.481 117.064L138.295 118.131C137.892 118.454 137.422 118.699 136.887 118.868C136.359 119.029 135.824 119.11 135.281 119.11ZM136.942 117.944V115.062H138.295V118.131L136.942 117.944ZM144.889 119.11C144.288 119.11 143.734 119.011 143.228 118.813C142.722 118.615 142.282 118.34 141.908 117.988C141.534 117.629 141.244 117.211 141.039 116.734C140.834 116.25 140.731 115.722 140.731 115.15C140.731 114.578 140.834 114.054 141.039 113.577C141.244 113.093 141.534 112.675 141.908 112.323C142.282 111.964 142.722 111.685 143.228 111.487C143.734 111.289 144.284 111.19 144.878 111.19C145.479 111.19 146.029 111.289 146.528 111.487C147.034 111.685 147.474 111.964 147.848 112.323C148.222 112.675 148.512 113.093 148.717 113.577C148.922 114.054 149.025 114.578 149.025 115.15C149.025 115.722 148.922 116.25 148.717 116.734C148.512 117.218 148.222 117.636 147.848 117.988C147.474 118.34 147.034 118.615 146.528 118.813C146.029 119.011 145.483 119.11 144.889 119.11ZM144.878 117.856C145.267 117.856 145.626 117.79 145.956 117.658C146.286 117.526 146.572 117.339 146.814 117.097C147.056 116.848 147.243 116.562 147.375 116.239C147.514 115.909 147.584 115.546 147.584 115.15C147.584 114.754 147.514 114.395 147.375 114.072C147.243 113.742 147.056 113.456 146.814 113.214C146.572 112.965 146.286 112.774 145.956 112.642C145.626 112.51 145.267 112.444 144.878 112.444C144.489 112.444 144.13 112.51 143.8 112.642C143.477 112.774 143.191 112.965 142.942 113.214C142.7 113.456 142.509 113.742 142.37 114.072C142.238 114.395 142.172 114.754 142.172 115.15C142.172 115.539 142.238 115.898 142.37 116.228C142.509 116.558 142.7 116.848 142.942 117.097C143.184 117.339 143.47 117.526 143.8 117.658C144.13 117.79 144.489 117.856 144.878 117.856ZM153.22 119L150.668 111.3H152.153L154.43 118.263H153.693L156.058 111.3H157.378L159.677 118.263H158.962L161.294 111.3H162.658L160.106 119H158.588L156.487 112.719H156.883L154.749 119H153.22ZM98.354 127.501H102.182V128.678H98.354V127.501ZM98.464 130.801H102.809V132H97.034V124.3H102.655V125.499H98.464V130.801ZM104.414 132L107.879 124.3H109.287L112.763 132H111.267L108.286 125.059H108.858L105.888 132H104.414ZM106.009 130.218L106.394 129.096H110.552L110.937 130.218H106.009ZM117.229 132.11C116.628 132.11 116.052 132.026 115.502 131.857C114.952 131.681 114.516 131.457 114.193 131.186L114.688 130.075C114.996 130.317 115.378 130.519 115.832 130.68C116.287 130.841 116.753 130.922 117.229 130.922C117.633 130.922 117.959 130.878 118.208 130.79C118.458 130.702 118.641 130.585 118.758 130.438C118.876 130.284 118.934 130.112 118.934 129.921C118.934 129.686 118.85 129.499 118.681 129.36C118.513 129.213 118.293 129.1 118.021 129.019C117.757 128.931 117.46 128.85 117.13 128.777C116.808 128.704 116.481 128.619 116.151 128.524C115.829 128.421 115.532 128.293 115.26 128.139C114.996 127.978 114.78 127.765 114.611 127.501C114.443 127.237 114.358 126.9 114.358 126.489C114.358 126.071 114.468 125.69 114.688 125.345C114.916 124.993 115.257 124.714 115.711 124.509C116.173 124.296 116.756 124.19 117.46 124.19C117.922 124.19 118.381 124.249 118.835 124.366C119.29 124.483 119.686 124.652 120.023 124.872L119.572 125.983C119.228 125.778 118.872 125.627 118.505 125.532C118.139 125.429 117.787 125.378 117.449 125.378C117.053 125.378 116.731 125.426 116.481 125.521C116.239 125.616 116.06 125.741 115.942 125.895C115.832 126.049 115.777 126.225 115.777 126.423C115.777 126.658 115.858 126.848 116.019 126.995C116.188 127.134 116.404 127.244 116.668 127.325C116.94 127.406 117.24 127.486 117.57 127.567C117.9 127.64 118.227 127.725 118.549 127.82C118.879 127.915 119.176 128.04 119.44 128.194C119.712 128.348 119.928 128.557 120.089 128.821C120.258 129.085 120.342 129.419 120.342 129.822C120.342 130.233 120.229 130.614 120.001 130.966C119.781 131.311 119.44 131.589 118.978 131.802C118.516 132.007 117.933 132.11 117.229 132.11ZM124.315 132V125.51H121.763V124.3H128.297V125.51H125.745V132H124.315ZM135.886 130.185L135.809 128.491L139.846 124.3H141.452L138.097 127.864L137.305 128.733L135.886 130.185ZM134.61 132V124.3H136.04V132H134.61ZM139.978 132L137.03 128.491L137.976 127.446L141.65 132H139.978ZM143.724 132V124.3H145.154V132H143.724ZM148.337 132V124.3H149.767V130.79H153.793V132H148.337ZM156.021 132V124.3H159.629C160.553 124.3 161.257 124.483 161.741 124.85C162.225 125.209 162.467 125.693 162.467 126.302C162.467 126.713 162.372 127.065 162.181 127.358C161.991 127.644 161.734 127.868 161.411 128.029C161.096 128.183 160.751 128.26 160.377 128.26L160.575 127.864C161.008 127.864 161.397 127.945 161.741 128.106C162.086 128.26 162.357 128.487 162.555 128.788C162.761 129.089 162.863 129.463 162.863 129.91C162.863 130.57 162.61 131.083 162.104 131.45C161.598 131.817 160.847 132 159.849 132H156.021ZM157.451 130.878H159.761C160.297 130.878 160.707 130.79 160.993 130.614C161.279 130.438 161.422 130.156 161.422 129.767C161.422 129.386 161.279 129.107 160.993 128.931C160.707 128.748 160.297 128.656 159.761 128.656H157.341V127.545H159.475C159.974 127.545 160.355 127.457 160.619 127.281C160.891 127.105 161.026 126.841 161.026 126.489C161.026 126.13 160.891 125.862 160.619 125.686C160.355 125.51 159.974 125.422 159.475 125.422H157.451V130.878ZM165.49 132V124.3H168.658C169.34 124.3 169.923 124.41 170.407 124.63C170.898 124.85 171.276 125.165 171.54 125.576C171.804 125.987 171.936 126.474 171.936 127.039C171.936 127.604 171.804 128.091 171.54 128.502C171.276 128.905 170.898 129.217 170.407 129.437C169.923 129.65 169.34 129.756 168.658 129.756H166.282L166.92 129.107V132H165.49ZM170.528 132L168.581 129.206H170.11L172.068 132H170.528ZM166.92 129.261L166.282 128.579H168.592C169.222 128.579 169.695 128.443 170.011 128.172C170.333 127.901 170.495 127.523 170.495 127.039C170.495 126.548 170.333 126.17 170.011 125.906C169.695 125.642 169.222 125.51 168.592 125.51H166.282L166.92 124.806V129.261ZM174.636 132V124.3H176.066V132H174.636ZM179.248 132V124.3H182.614C183.45 124.3 184.184 124.461 184.814 124.784C185.445 125.107 185.936 125.554 186.288 126.126C186.64 126.698 186.816 127.373 186.816 128.15C186.816 128.92 186.64 129.595 186.288 130.174C185.936 130.746 185.445 131.193 184.814 131.516C184.184 131.839 183.45 132 182.614 132H179.248ZM180.678 130.79H182.548C183.128 130.79 183.626 130.68 184.044 130.46C184.47 130.24 184.796 129.932 185.023 129.536C185.258 129.14 185.375 128.678 185.375 128.15C185.375 127.615 185.258 127.153 185.023 126.764C184.796 126.368 184.47 126.06 184.044 125.84C183.626 125.62 183.128 125.51 182.548 125.51H180.678V130.79ZM190.756 127.501H194.584V128.678H190.756V127.501ZM190.866 130.801H195.211V132H189.436V124.3H195.057V125.499H190.866V130.801Z" fill="#216145"/>
</g>
</g>
</svg>
