<svg width="175" height="175" fill="none" xmlns="http://www.w3.org/2000/svg"><path d="M97.687 153v-36.237a11.148 11.148 0 0111.15-11.15v-44.6s-8.363-5.575-22.3-5.575c-13.938 0-22.3 5.575-22.3 5.575v44.6a11.15 11.15 0 0111.15 11.15V153m-36.237 0v-36.237A11.15 11.15 0 0028 105.613v-44.6s8.362-5.575 22.3-5.575M133.924 153v-36.237a11.15 11.15 0 0111.15-11.15v-44.6s-8.363-5.575-22.3-5.575m-37.073-11.15s-8.92-5.574-8.92-12.543a9.745 9.745 0 0119.49 0c0 6.969-8.898 12.544-8.898 12.544h-1.672zm-36.237 0s-8.92-5.574-8.92-12.543a9.746 9.746 0 0118.748-3.73c.49 1.183.742 2.45.742 3.73 0 6.969-8.898 12.544-8.898 12.544h-1.672zm72.474 0s-8.92-5.574-8.92-12.543A9.747 9.747 0 01122.763 22a9.747 9.747 0 019.745 9.745c0 6.969-8.898 12.544-8.898 12.544h-1.672z" stroke="#545454" stroke-width="4.167"/></svg>