<svg width="175" height="176" fill="none" xmlns="http://www.w3.org/2000/svg"><path d="M162.4 98.2c-.7-3.4-2.7-11.6-7-15.6-4.8-4.4-21.3-9-24.3-9.8-1.2-1.3-5.8-6.1-12.5-10.9-7.3-5.2-18.5-11.4-30.7-11.4H27.5c-1.3 0-2.5.9-3 2.2-.5 1.5-.1 3.1 1.1 4 .1.1.1.2.2.3 0 .2 0 .3-.1.4-2.7 3.4-7.4 11.8-7.6 29.2 0 .1 0 .2-.1.3-3 0-5.4 2.8-5.4 6.2v15.4c0 3.4 2.5 6.2 5.5 6.2h2.5c2.1 6.2 7.9 10.7 14.8 10.7s12.8-4.5 14.8-10.7h73.5c2.1 6.2 7.9 10.7 14.8 10.7 7.1 0 13.1-4.7 15-11.2l5.2-2.7c1.6-.8 2.6-2.4 2.9-4.3l.9-6.9c0-.7 0-1.4-.1-2.1zM35.3 122.5c-7 0-12.6-5.7-12.6-12.6 0-7 5.7-12.6 12.6-12.6 6.9 0 12.7 5.6 12.7 12.6 0 6.9-5.7 12.6-12.7 12.6zm103.2 0c-7 0-12.6-5.7-12.6-12.6 0-7 5.7-12.6 12.6-12.6 6.9 0 12.6 5.7 12.6 12.6 0 6.9-5.6 12.6-12.6 12.6zm21-22.6l-.9 6.9c-.1.9-.6 1.7-1.3 2l-3.2 1.7v-.7c0-8.6-7-15.6-15.6-15.6s-15.6 7-15.6 15.6c0 .6.1 1.3.1 1.9H50.8c.1-.6.1-1.3.1-1.9 0-8.6-7-15.6-15.6-15.6s-15.6 7-15.6 15.6c0 .6.1 1.3.1 1.9H18c-1.4 0-2.5-1.4-2.5-3.2V93.2c0-1.8 1.1-3.2 2.5-3.2 1.7 0 3-1.4 3-3.2.3-17.1 5-24.9 7-27.4.6-.7.9-1.7.7-2.7-.1-.9-.6-1.8-1.3-2.4-.2-.1-.2-.3-.2-.4 0-.2.1-.4.1-.4h60.4c17.4 0 32.9 13.4 38.7 19.1H82.9V57.3h-3v15.3H40.2c-1.4 0-2.5-1.4-2.5-3.2V57.3h-3v12.1c0 3.4 2.5 6.2 5.5 6.2H130c5.4 1.4 19.5 5.7 23.3 9.2 3.8 3.5 5.6 11.6 6.1 14 .1.4.1.7.1 1.1z" fill="#1F4456"/></svg>