<svg width="175" height="176" fill="none" xmlns="http://www.w3.org/2000/svg"><path d="M156 135c-5 0-7.8-1.1-12.7-5.1-3-2.5-5-3.6-7.4-4.1L90.5 59.4H122c.6.1 4.5.2 7.4-2.4 2.1-1.9 3.1-4.7 3.1-8.3 0-3.6-1-6.4-3.1-8.3-2.9-2.6-6.8-2.5-7.4-2.4H75.5c-7.2 0-13.2 5.7-13.4 12.7-.1 3 1.9 7.4 3.1 9.7.4.9.8 1.6 1.2 2.4L80 93.2v.1l.1.2c.2.3 0 .7-.4 1l-49.3 32.6v.1c-1.1.7-2.4 1.5-3.8 2.7-5 4-7.7 5.1-12.7 5.1-.8 0-1.5.7-1.5 1.5s.7 1.5 1.5 1.5c5.7 0 9.1-1.3 14.6-5.7 3.9-3.1 5.5-3.8 9.1-3.8 3.6 0 5.2.7 9.1 3.8 5.5 4.4 8.9 5.7 14.6 5.7 5.7 0 9.1-1.3 14.6-5.7 3.9-3.1 5.5-3.8 9.1-3.8 3.6 0 5.2.7 9.1 3.8 5.5 4.4 8.9 5.7 14.6 5.7 5.7 0 9.1-1.3 14.6-5.7 3.9-3.1 5.5-3.8 9.1-3.8 3.6 0 5.2.7 9.1 3.8 5.5 4.4 8.9 5.7 14.6 5.7.8 0 1.5-.7 1.5-1.5-.1-.8-.8-1.5-1.6-1.5zm-34.6-5c-5 4-7.7 5.1-12.7 5.1-5 0-7.8-1.1-12.7-5.1-4.4-3.5-6.6-4.5-10.9-4.5-4.3 0-6.6.9-10.9 4.5-5 4-7.7 5.1-12.7 5.1-5 0-7.8-1.1-12.7-5.1-4.1-3.3-6.4-4.3-10.3-4.4l43.1-28.5c1.7-1.1 2.3-3.1 1.4-4.9L69 61.6c-.4-.8-.8-1.6-1.2-2.5-1.8-3.5-2.9-6.6-2.8-8.3.2-5.4 4.9-9.8 10.5-9.8h46.7s3.1-.3 5.2 1.7c1.4 1.3 2.1 3.3 2.1 6.1 0 2.7-.7 4.8-2.1 6.1-2.1 1.9-5.2 1.7-5.3 1.7H89.5c-.9 0-1.8.5-2.2 1.3-.4.8-.4 1.8.1 2.6l44.4 65.1c-3.9-.1-6.1.9-10.4 4.4z" fill="#1F4456"/><path d="M159.7 74c-4-7.6-12.7-14-22.3-10-4.2 1.7-14 8-17 12.6-2.6 4-3.5 10.5-2.1 15.7l.1.2c.5 1.4.8 2.1 1.2 2.9.4.7.8 1.4 1.7 2.5l.1.1c3.6 4.1 9.4 7.1 14.2 7.1h.1c5.3 0 16-4.6 19.8-7.1 8.7-5.6 8.3-16.4 4.2-24zm-5.8 21.6c-3.4 2.2-13.5 6.6-18.1 6.6h-.1c-4 0-8.9-2.6-12-6.1V96c-.7-1-1.1-1.6-1.4-2.1-.3-.6-.6-1.2-1-2.4v-.1c-1.2-4.4-.5-10 1.7-13.3 2.5-3.9 11.8-9.9 15.7-11.5 7.8-3.3 15.1 2.2 18.5 8.6 3.4 6.6 3.8 15.7-3.3 20.4z" fill="#1F4456"/></svg>