<svg width="175" height="175" fill="none" xmlns="http://www.w3.org/2000/svg"><path d="M94.5 54.13a36.779 36.779 0 00-6.078-.523 36.78 36.78 0 00-6.076.524c-.303.05-.423-.242-.192-.418.212-.151 6.269-4.763 6.269-4.763l6.263 4.763c.236.176.12.473-.187.418zM84.037 84.063s-.322.116-.403.398c1.27.972 2.14 3.192 4.788 3.192 2.649 0 3.525-2.215 4.789-3.197-.08-.282-.403-.393-.403-.393s-1.662.388-4.386.388c-2.728 0-4.385-.388-4.385-.388zm4.385-3.735c-.735 0-.896-.277-1.4-.277-.472 0-1.404.382-1.605.735a.773.773 0 00.211.478c1.068.156 1.556.755 2.794.755 1.244 0 1.728-.599 2.8-.755.12-.132.193-.3.206-.478-.201-.353-1.127-.73-1.606-.735-.503 0-.664.277-1.4.277zm60.353 11.429a60.531 60.531 0 01-.383 4.294c-6.847 1.133-9.289-4.964-16.298-4.657.418 1.485.756 3 1.022 4.546 5.78 0 8.106 5.403 14.541 4.607a58.56 58.56 0 01-1.219 4.884c-5.085.504-6.872-4.551-12.758-4.41.051.835.076 1.681.076 2.537l-.025 1.41 11.429 4.36a60.557 60.557 0 01-1.999 4.773c-3.434-.186-4.617-4.592-9.843-4.244a46.346 46.346 0 01-.594 3.348c4.536-.317 5.513 3.861 8.76 4.199a61.455 61.455 0 01-2.668 4.415c-1.924-1.032-3.595-4.143-7.25-4.335.378-1.16.707-2.336.986-3.524-3.242 0-6.948-1.259-10.049-4.088 1.007-5.74-7.895-11.575-7.895-15.774 0-4.562 2.306-7.084 2.306-13.232 0-4.566-2.215-9.515-5.558-12.899a11.168 11.168 0 00-2.069-1.661c3.071 3.796 5.427 8.302 5.427 13.518 0 5.79-2.693 8.846-2.693 14.193 0 5.342 7.819 9.969 7.819 15.477 0 2.165-.695 4.28-2.981 8.443 3.509 3.505 8.081 5.418 11.026 5.418.957 0 1.475-.292 1.818-1.042.295-.65.576-1.306.841-1.969 3.171.121 4.632 3.006 6.389 4.159a59.695 59.695 0 01-3.041 3.756c-1.178-1.304-2.764-3.499-5.085-4.109-.413.807-.85 1.601-1.309 2.382 1.993.544 3.358 2.558 4.415 3.882a60.827 60.827 0 01-3.56 3.403c-.77-1.203-1.973-2.724-3.323-3.544a42.288 42.288 0 01-1.545 1.963c1.143.781 2.155 2.175 2.814 3.313a61.473 61.473 0 01-4.43 3.248c-.756-6.143-9.133-10.347-6.873-17.471-.74 1.259-1.626 2.824-1.626 4.717 0 5.156 5.488 9.244 5.931 14.37a63.807 63.807 0 01-3.489 1.928c-.202-5.634-6.012-11.796-6.012-16.413 0-5.161 6.757-10.347 6.757-16.434 0-6.092-7.799-10.316-7.799-15.663 0-5.347 3.318-8.423 3.318-15.28 0-5.02-2.387-10.1-6.072-13.343a10.024 10.024 0 00-2.064-1.44c3.474 4.169 5.488 7.955 5.488 13.69 0 6.444-3.802 10.019-3.802 16.333 0 6.313 7.653 9.817 7.653 15.708 0 5.881-7.119 10.835-7.119 16.882 0 5.498 6.273 10.986 6.369 17.506a59.508 59.508 0 01-4.194 1.641c.801-6.59-6.268-13.387-6.268-18.765 0-5.875 7.386-10.93 7.386-17.269 0-6.344-7.507-9.289-7.507-15.8 0-6.504 4.607-10.104 4.607-17.294a17.527 17.527 0 00-6.807-13.765l-.257-.191c-.383-.282-.695.055-.423.393 2.86 3.574 4.39 7.184 4.39 12.536 0 6.57-5.296 11.913-5.296 18.287 0 7.517 7.109 9.666 7.109 15.834 0 6.168-7.623 11.102-7.623 17.647 0 6.072 7.215 12.814 5.977 19.822a59.016 59.016 0 01-4.4.967c1.354-8.726-5.725-14.994-5.725-20.703 0-6.183 7.894-11.691 7.894-17.733 0-5.694-5.664-7.557-6.41-13.387-.1-.796-.74-1.385-1.62-1.239-1.153.212-2.628.967-4.944.967-2.317 0-3.792-.755-4.945-.967-.876-.146-1.515.443-1.616 1.239-.745 5.83-6.414 7.688-6.414 13.392 0 6.037 7.894 11.545 7.894 17.723 0 5.714-7.074 11.982-5.724 20.708a61.203 61.203 0 01-4.4-.967c-1.24-7.008 5.976-13.745 5.976-19.822 0-6.545-7.623-11.479-7.623-17.647 0-6.168 7.11-8.317 7.11-15.834 0-6.374-5.292-11.711-5.292-18.292 0-5.347 1.525-8.962 4.39-12.536.267-.333-.045-.67-.428-.388l-.252.191a17.501 17.501 0 00-6.802 13.755c0 7.19 4.607 10.79 4.607 17.3 0 6.505-7.512 9.455-7.512 15.799 0 6.334 7.386 11.389 7.386 17.269 0 5.378-7.064 12.175-6.263 18.765a60 60 0 01-4.194-1.641c.096-6.525 6.369-12.013 6.369-17.511 0-6.042-7.12-11.001-7.12-16.882 0-5.886 7.649-9.395 7.649-15.709 0-6.308-3.797-9.888-3.797-16.332 0-5.74 2.014-9.516 5.488-13.685a9.77 9.77 0 00-2.064 1.435 18.293 18.293 0 00-6.072 13.342c0 6.858 3.318 9.934 3.318 15.28 0 5.353-7.799 9.567-7.799 15.664 0 6.092 6.757 11.278 6.757 16.434 0 4.622-5.815 10.784-6.012 16.413a60.114 60.114 0 01-3.489-1.928c.438-5.121 5.931-9.214 5.931-14.37 0-1.888-.886-3.458-1.626-4.712 2.256 7.119-6.122 11.328-6.878 17.466a61.012 61.012 0 01-4.43-3.248c.66-1.133 1.671-2.532 2.82-3.308a40.123 40.123 0 01-1.551-1.968c-1.35.82-2.553 2.346-3.323 3.544a61.89 61.89 0 01-3.56-3.398c1.057-1.33 2.427-3.343 4.42-3.887-.461-.781-.9-1.575-1.314-2.382-2.316.615-3.907 2.81-5.085 4.114a61.41 61.41 0 01-3.036-3.756c1.763-1.158 3.212-4.043 6.39-4.164.266.66.543 1.319.84 1.964.343.755.856 1.047 1.813 1.047 2.95 0 7.517-1.913 11.026-5.418-2.28-4.158-2.97-6.273-2.97-8.443 0-5.508 7.813-10.13 7.813-15.477 0-5.342-2.693-8.398-2.693-14.188 0-5.221 2.356-9.722 5.427-13.523a11.171 11.171 0 00-2.074 1.661c-3.338 3.394-5.558 8.343-5.558 12.904 0 6.148 2.31 8.675 2.31 13.237 0 4.199-8.9 10.034-7.894 15.769-3.106 2.829-6.812 4.093-10.054 4.093a46.82 46.82 0 00.981 3.524c-3.65.192-5.316 3.303-7.25 4.33a60.96 60.96 0 01-2.668-4.41c3.252-.343 4.229-4.516 8.77-4.199a46.02 46.02 0 01-.594-3.348c-5.226-.353-6.414 4.058-9.848 4.244a60.548 60.548 0 01-1.994-4.773l11.424-4.365-.025-1.41c0-.856.025-1.702.07-2.543-5.88-.135-7.672 4.914-12.757 4.416a60.94 60.94 0 01-1.214-4.884c6.425.791 8.76-4.612 14.54-4.607a44.008 44.008 0 011.018-4.551c-7.009-.302-9.456 5.79-16.293 4.657a59.063 59.063 0 01-.383-4.29c7.955.887 10.931-5.648 18.176-4.848a42.457 42.457 0 012.366-5.02C39.53 80.286 36.448 87.88 28 86.716 28.916 54.13 55.616 28 88.422 28c32.807 0 59.507 26.13 60.418 58.72-8.453 1.169-11.53-6.424-20.607-4.833a42.773 42.773 0 012.366 5.02c7.24-.8 10.221 5.74 18.176 4.849zm-86.332-25.35c-4.45-1.818-9.838-1.4-14.44 1.56-.715-4.284-3.036-8.09-6.344-10.382-.458-.317-.931-.02-.89.514.7 9.043-4.593 16.897-11.092 23.805 6.7 2.013 12.405-6.616 21.095-3.605a45.493 45.493 0 0111.671-11.893zm25.98-5.473c-5.61 0-10.312 3.172-11.54 7.275-.1.312.03.518.392.352 1.007-.453 2.16-.67 3.41-.67 2.285 0 4.304.841 5.497 2.302.524 1.742.569 4.264-.025 5.699-.942-.212-1.284-.937-2.205-.937-.917 0-1.632.645-3.192.645-1.561 0-1.743-.735-2.77-.735-1.208 0-1.43 1.243-1.43 2.643 0 6.253 5.75 14.853 11.862 14.853 6.108 0 11.852-8.6 11.852-14.853 0-1.405-.287-2.603-1.545-2.769a3.811 3.811 0 01-2.649.86c-1.56 0-1.988-.644-2.91-.644-1.107 0-.997 2.342-2.316 2.468-.88-2.11-.921-4.819-.191-7.23 1.193-1.46 3.207-2.301 5.498-2.301 1.249 0 2.402.221 3.403.67.363.165.489-.041.398-.353-1.228-4.099-5.93-7.275-11.54-7.275zm8.931 8.972c-1.344 0-2.92.412-3.912 1.515-.107.343-.093.713.04 1.047 2.442-.835 4.592-.87 5.634.292.554-.503.73-.956.73-1.48 0-.81-.825-1.374-2.492-1.374zM77.73 72.759c1.178-1.178 3.66-1.127 6.233-.176.115-1.279-2.18-2.683-4.471-2.683-1.667 0-2.492.563-2.492 1.38 0 .523.176.98.73 1.48zm38.667-21.16c-4.431.316-8.272 1.837-11.389 4.37a44.664 44.664 0 015.131-10.201c-5.639.599-10.357 2.663-13.796 6.188l-2.698-7.064 5.98-5.277-8.004-.569-3.198-7.446-3.197 7.451-8.005.564 5.976 5.282-2.688 7.059c-3.444-3.525-8.156-5.59-13.795-6.188a44.937 44.937 0 015.12 10.2c-3.112-2.532-6.958-4.053-11.389-4.37 2.659 3.419 5.015 7.059 6.757 10.976.201.443.624.589 1.077.357a45.126 45.126 0 0120.14-4.712c7.24 0 14.072 1.702 20.144 4.712.458.232.881.086 1.077-.352 1.747-3.922 4.103-7.562 6.762-10.976l-.005-.005zm9.677 26.704c8.69-3.011 14.399 5.613 21.095 3.605-6.499-6.908-11.786-14.763-11.086-23.81.04-.529-.438-.83-.891-.514-3.308 2.296-5.634 6.103-6.344 10.382-4.602-2.955-9.989-3.373-14.44-1.556a45.527 45.527 0 0111.666 11.893z" fill="#545454"/></svg>