<svg width="175" height="175" fill="none" xmlns="http://www.w3.org/2000/svg"><path d="M87.456 146.948c-6.984 0-12.659-5.674-12.659-12.659 0-6.984 5.675-12.659 12.66-12.659 6.984 0 12.659 5.675 12.659 12.659 0 6.985-5.675 12.659-12.66 12.659zm0-21.127c-4.627 0-8.468 3.754-8.468 8.468 0 4.627 3.754 8.469 8.468 8.469a8.421 8.421 0 008.469-8.469c0-4.714-3.841-8.468-8.469-8.468zM24.073 56.414c-.61 0-1.222-.262-1.571-.786-.786-.873-.611-2.183.262-2.968C40.836 37.38 63.797 29 87.544 29c23.659 0 46.62 8.381 64.692 23.572.873.786 1.048 2.095.262 2.969-.786.873-2.095 1.047-2.968.262-17.286-14.58-39.287-22.612-61.986-22.612-22.7 0-44.788 8.032-62.074 22.699-.436.349-.873.524-1.397.524zM45.201 79.55c-.611 0-1.222-.263-1.572-.786-.785-.873-.61-2.183.262-2.969 12.136-10.302 27.676-15.977 43.653-15.977a67.735 67.735 0 0143.565 15.89c.873.786 1.047 2.095.262 2.968-.786.873-2.096 1.048-2.969.262-11.437-9.603-25.929-14.929-40.858-14.929-14.93 0-29.51 5.326-40.946 14.93-.437.436-.873.61-1.397.61zm21.128 23.222c-.611 0-1.223-.262-1.572-.785-.786-.873-.611-2.183.262-2.969 6.286-5.325 14.23-8.206 22.525-8.206a34.669 34.669 0 0122.437 8.206c.873.786 1.048 2.096.262 2.969-.786.873-2.095 1.047-2.969.261-5.5-4.627-12.484-7.159-19.73-7.159a30.636 30.636 0 00-19.819 7.247c-.436.262-.872.436-1.396.436z" fill="#1F4456"/></svg>